<svg width="24" height="24" viewBox="0 0 24 24" fill="none" xmlns="http://www.w3.org/2000/svg" id=":r2:" class="cursor-pointer"><path fill-rule="evenodd" clip-rule="evenodd" d="M7.33784 11.7042C6.93552 11.7042 6.60937 11.3781 6.60937 10.9758L6.60937 6.31356C6.60937 3.33638 9.02286 0.922899 12 0.9229C14.9772 0.922899 17.3907 3.33638 17.3907 6.31356L17.3907 10.9758C17.3907 11.3781 17.0646 11.7042 16.6622 11.7042C16.2599 11.7042 15.9338 11.3781 15.9338 10.9758L15.9338 6.31356C15.9338 4.14102 14.1726 2.37984 12 2.37984C9.8275 2.37984 8.06631 4.14102 8.06631 6.31356L8.06631 10.9758C8.06631 11.3781 7.74016 11.7042 7.33784 11.7042Z" fill="currentcolor"></path><path fill-rule="evenodd" clip-rule="evenodd" d="M6.91637 6.75H17.0841C18.0602 6.74998 18.8632 6.74996 19.5029 6.83303C20.174 6.92018 20.7632 7.1089 21.2514 7.55809C21.7395 8.00728 21.9765 8.57871 22.1191 9.24032C22.255 9.87092 22.3217 10.6711 22.4027 11.6439L23.0097 18.9277C23.0556 19.4773 23.0961 19.9629 23.0746 20.3561C23.0514 20.7816 22.9519 21.2182 22.6172 21.582C22.2825 21.9457 21.8556 22.0811 21.4336 22.1396C21.0436 22.1936 20.5562 22.1936 20.0047 22.1935H3.99574C3.44422 22.1936 2.95689 22.1936 2.56689 22.1396C2.1448 22.0811 1.71792 21.9457 1.38323 21.582C1.04854 21.2182 0.949032 20.7816 0.925824 20.3561C0.90438 19.9629 0.94489 19.4773 0.990735 18.9277L1.59772 11.6439C1.67876 10.6711 1.74543 9.87092 1.88133 9.24032C2.02392 8.57871 2.26091 8.00728 2.74909 7.55809C3.23727 7.1089 3.82641 6.92018 4.49757 6.83303C5.13729 6.74996 5.94027 6.74998 6.91637 6.75ZM4.68519 8.27783C4.171 8.3446 3.91654 8.46373 3.7356 8.63022C3.55465 8.79671 3.41481 9.0404 3.30557 9.54726C3.19193 10.0745 3.13171 10.7798 3.04553 11.814L2.44663 19.0009C2.39562 19.6129 2.36531 19.9965 2.3806 20.2767C2.39441 20.5299 2.4415 20.5806 2.45449 20.5945L2.45536 20.5955L2.45623 20.5964C2.46906 20.6105 2.51558 20.6616 2.76678 20.6964C3.04478 20.7349 3.42954 20.7366 4.04372 20.7366H19.9567C20.5709 20.7366 20.9557 20.7349 21.2337 20.6964C21.4849 20.6616 21.5314 20.6105 21.5442 20.5964L21.5451 20.5955L21.546 20.5945C21.559 20.5806 21.606 20.5299 21.6198 20.2767C21.6351 19.9965 21.6048 19.6129 21.5538 19.0009L20.9549 11.814C20.8687 10.7798 20.8085 10.0745 20.6949 9.54726C20.5856 9.0404 20.4458 8.79671 20.2648 8.63022C20.0839 8.46373 19.8294 8.3446 19.3153 8.27783C18.7804 8.20838 18.0725 8.20694 17.0348 8.20694H6.96567C5.92794 8.20694 5.22008 8.20838 4.68519 8.27783Z" fill="currentcolor"></path></svg>