<svg width="20" height="20" viewBox="0 0 24 24" fill="none" color="#0F0F0F" xmlns="http://www.w3.org/2000/svg" id=":r1:"><path fill-rule="evenodd" clip-rule="evenodd" d="M17.1956 15.3101L22.5 20.6145L21.1145 22L15.8101 16.6956L17.1956 15.3101Z" fill="currentcolor"></path><path fill-rule="evenodd" clip-rule="evenodd" d="M11.3174 3.95942C7.52983 3.95942 4.45942 7.02983 4.45942 10.8174C4.45942 14.6049 7.52983 17.6754 11.3174 17.6754C15.1049 17.6754 18.1754 14.6049 18.1754 10.8174C18.1754 7.02983 15.1049 3.95942 11.3174 3.95942ZM2.5 10.8174C2.5 5.94768 6.44768 2 11.3174 2C16.1871 2 20.1348 5.94768 20.1348 10.8174C20.1348 15.6871 16.1871 19.6348 11.3174 19.6348C6.44768 19.6348 2.5 15.6871 2.5 10.8174Z" fill="currentcolor"></path></svg>